# xmcd
#
# Track frame offsets: 
#        150
#        17148
#        31144
#        48258
#        66277
#        86250
#        97897
#        115028
#        125372
#        139776
#        149701
#        159488
#        174432
#        188517
#        206672
#        225080
#
# Disc length: 3295 seconds
#
# Revision: 0
# Processed by: cddbd v1.5.2PL0 Copyright (c) Steve Scherf et al.
# Submitted via: ExactAudioCopy v0.95b3
#
DISCID=c70cdd10
DTITLE=Various Artist - V hospode VII
DYEAR=2002
DGENRE=Country
TTITLE0=Kdyz jsem prisla k Vonaskovum
TTITLE1=Ku Praze uhani vlak
TTITLE2=Zizkovak
TTITLE3=Ja mam holku od Odkolku
TTITLE4=Na Zizkove
TTITLE5=Na Frantisku v Celetny ulici
TTITLE6=Pred vejtonkou hospodou
TTITLE7=Sv. Vaclav zada prazky magistrat
TTITLE8=Na Marjance
TTITLE9=Anezka Bohmova
TTITLE10=Libensky plynijem
TTITLE11=U sv. Mateje
TTITLE12=Krasna je za noci maticka Praha
TTITLE13=Babrlinka z Podskali
TTITLE14=Ci je Praha?! Nase!
TTITLE15=Ceska pisnicka
EXTD=
EXTT0=
EXTT1=
EXTT2=
EXTT3=
EXTT4=
EXTT5=
EXTT6=
EXTT7=
EXTT8=
EXTT9=
EXTT10=
EXTT11=
EXTT12=
EXTT13=
EXTT14=
EXTT15=
PLAYORDER=
